<svg xmlns="http://www.w3.org/2000/svg" viewBox="0 0 32 32" role="img" aria-label="Mash Business Consultancy">
  <title>Mash Business Consultancy</title>
  <rect width="32" height="32" rx="7.04" fill="#06333C"/>
  <!-- The tick from the firm's own logo. Regenerate with trace_logo.py. -->
  <g transform="translate(6.600 8.364) scale(0.15272)">
    <path fill="#00BCD4" d="M42.2 99.7C41.5 98.8 40.9 97.9 40.9 97.8C40.9 97.7 40.4 97 40.1 96.6C40 96.4 39.8 96.2 39.7 96.1C39.7 96 39.3 95.4 38.9 94.9C38.6 94.3 38.3 93.8 38.3 93.7C38.3 93.6 38.2 93.5 38.1 93.4C38 93.4 37.9 93.2 37.8 93C37.7 92.8 37.2 92.1 36.8 91.5C36.4 90.9 35.8 89.9 35.4 89.4C35 88.8 34.6 88.3 34.5 88.2C34.3 87.8 33 85.8 33 85.7C33 85.6 32.9 85.5 32.8 85.4C32.7 85.3 32.3 84.7 31.9 84.1C31.5 83.5 31.1 82.9 31 82.8C30.9 82.7 30.8 82.5 30.8 82.5C30.8 82.4 30.5 81.9 30.1 81.3C29.6 80.7 29.3 80.1 29.2 80C29.2 79.9 28.9 79.4 28.5 79C28.2 78.5 27.9 78 27.8 77.8C27.7 77.7 27.2 76.9 26.7 76.2C25.6 74.6 24.8 73.3 24.3 72.5C24.2 72.4 23.8 71.8 23.4 71.2C23 70.6 22.5 69.9 22.3 69.6C22.2 69.4 21.8 68.7 21.4 68.2C21.1 67.7 20.8 67.3 20.8 67.2C20.8 67.2 20.7 67.1 20.6 67C20.5 66.9 20.2 66.5 19.8 65.7C19.7 65.5 19.5 65.2 19.4 65.1C19.2 65 19.1 64.8 19.1 64.7C19.1 64.6 19 64.4 18.9 64.3C18.8 64.2 18 63 17.1 61.7C16.2 60.3 15.4 59.1 15.3 59C15.2 58.9 15.1 58.7 15 58.6C15 58.4 14.9 58.2 14.7 58.1C14.6 58 14.5 57.9 14.5 57.8C14.5 57.7 14.4 57.5 14.2 57.3C14 57 13.9 56.8 13.9 56.7C13.9 56.7 13.8 56.5 13.7 56.4C13.5 56.2 12.6 54.9 12.1 54.1C11.8 53.6 11.5 53.1 11.3 52.9C10.8 52.3 10.1 51.2 9.4 50.1C9.3 49.9 9 49.5 8.9 49.3C8.7 49.1 8.6 48.9 8.6 48.8C8.6 48.8 8.5 48.6 8.4 48.5C8.1 48.2 7.3 47 6.7 46.1C5.7 44.6 4.8 43.2 4.7 43.2C4.7 43.2 4.6 43.1 4.6 43C4.5 42.9 4.4 42.6 4.2 42.5C4.1 42.3 3.8 41.9 3.6 41.5C3.3 41.2 3 40.7 2.8 40.4C2.7 40.2 2.3 39.7 2.1 39.4C1.9 39.1 1.6 38.6 1.5 38.5C1.4 38.3 1.3 38.1 1.3 38.1C1.3 38 1.3 37.9 1.2 37.9C1.1 37.8 0.9 37.6 0.7 37.3C0.6 37.1 0.3 36.7 0.2 36.5C-0.1 36.1 -0.2 35.9 0 35.9C0.1 35.9 0.5 36.2 0.9 36.6C1.4 37.1 1.8 37.4 1.9 37.4C1.9 37.4 2 37.5 2 37.6C2.1 37.7 2.2 37.9 2.3 37.9C2.5 37.9 3 38.3 3.4 38.7C4.3 39.6 5.4 40.6 5.5 40.6C5.6 40.6 6.2 41.2 6.9 41.9C7.6 42.6 8.4 43.3 8.6 43.5C8.8 43.6 9.4 44.2 10.1 44.8C10.7 45.4 11.8 46.5 12.6 47.2C13.4 48 14.6 49.2 15.4 49.9C16.1 50.7 16.8 51.3 16.9 51.3C17 51.3 17.1 51.4 17.1 51.5C17.1 51.6 17.7 52.2 18.3 52.8C19 53.4 19.6 54 19.6 54C20.9 55.3 22 56.4 22.2 56.5C22.3 56.5 22.4 56.6 22.4 56.7C22.5 56.8 22.9 57.3 23.3 57.7C24.6 58.9 24.7 59.1 24.8 59.1C24.9 59.1 25 59.2 25.1 59.3C25.1 59.5 27.3 61.7 27.5 61.7C27.6 61.8 27.7 61.9 27.7 61.9C27.7 62.1 29.9 64.3 30.2 64.4C30.3 64.4 30.4 64.5 30.4 64.6C30.4 64.7 32.6 66.9 32.8 67C32.9 67.1 33 67.2 33 67.2C33 67.4 35 69.4 35.4 69.6C35.5 69.7 35.6 69.8 35.6 69.9C35.6 69.9 35.9 70.2 36.2 70.6C36.5 70.9 37 71.4 37.3 71.7C37.6 72 37.9 72.3 38 72.3C38.1 72.3 38.2 72.4 38.3 72.5C38.3 72.7 40.5 74.9 40.7 74.9C40.8 75 40.9 75.1 40.9 75.1C40.9 75.3 43.2 77.6 43.3 77.6C43.4 77.6 43.5 77.7 43.6 77.8C43.7 78 43.7 78.1 43.8 78.1C43.8 78.1 43.9 78.1 44 78.2C44.2 78.2 45.3 77.2 46.6 75.9C46.9 75.6 48.9 73.5 51.1 71.3C53.3 69.1 55.1 67.3 55.2 67.2C55.4 67 57.9 64.6 58.8 63.7C59.1 63.4 59.7 62.8 60.1 62.4C60.5 62 61.2 61.3 61.6 60.9C62.1 60.5 62.7 59.9 62.9 59.6C63.2 59.3 63.7 58.7 64.1 58.4C64.4 58.1 65.1 57.5 65.5 57C66.2 56.3 68.3 54.2 68.6 53.9C69 53.5 71.1 51.5 76.7 45.9C80.1 42.4 83 39.5 83.1 39.4C83.2 39.3 84.1 38.4 85.2 37.3C88 34.5 95.1 27.4 95.8 26.8C96.4 26.2 96.4 26.2 97.2 25.4C97.6 25 97.9 24.7 98 24.7C98.1 24.7 98.2 24.5 98.3 24.4C98.4 24.3 98.5 24.1 98.7 24C98.8 24 98.9 23.9 98.9 23.8C98.9 23.8 100.1 22.5 101.5 21.2C101.6 21.1 103.1 19.6 103.8 18.9C104.8 17.9 108.2 14.5 108.8 14C108.9 13.9 109 13.8 109.1 13.7C109.3 13.6 109.2 13.6 110.4 12.5C110.8 12 111.3 11.5 111.4 11.4C111.5 11.3 111.7 11.2 111.7 11.1C112.1 10.7 114.1 8.8 114.4 8.5C114.6 8.3 115.2 7.8 115.6 7.3C116.1 6.8 116.9 6 117.4 5.6C117.9 5.1 118.7 4.3 119.1 3.9C119.5 3.5 119.9 3.1 120 3C120.1 2.9 120.6 2.4 121.1 1.8C121.6 1.3 122.2 0.8 122.3 0.7C122.5 0.4 122.8 0.4 122.8 0.7C122.8 0.8 122.7 0.9 122.6 1C122.5 1 122.3 1.2 122.3 1.4C122.2 1.5 122.1 1.8 121.9 2.1C121.3 2.7 120.1 4.3 120.1 4.5C120.1 4.6 120 4.7 119.9 4.7C119.8 4.8 119.6 5.1 119.4 5.4C119.2 5.7 119 6 118.9 6.1C118.7 6.2 118.6 6.4 118.5 6.5C118.3 6.9 117.2 8.4 116.9 8.6C116.8 8.8 116.7 9 116.6 9.1C116.5 9.3 113.5 13.4 112.9 14.2C112.5 14.6 110.9 16.7 110.3 17.6C109.9 18.1 109.4 18.8 109.1 19.1C108.4 20 107.2 21.5 107 21.8C106.9 22 106.7 22.3 106.4 22.7C106.2 23 105.6 23.8 105.1 24.4C104.6 25.1 104.1 25.7 104 25.8C103.9 26 103.6 26.3 103.4 26.6C103.2 26.9 102.8 27.3 102.6 27.5C102.4 27.8 102.1 28.3 101.9 28.6C101.7 28.9 101.4 29.2 101.2 29.3C101.1 29.4 101 29.5 101 29.6C101 29.7 100.9 29.9 100.7 30C100.4 30.4 99.6 31.3 99.2 32C99 32.3 98.8 32.5 98.8 32.5C98.7 32.6 97 34.8 96.8 35.1C96.7 35.2 96.6 35.3 96.5 35.3C96.4 35.3 96.3 35.4 96.3 35.6C96.2 35.7 96.1 35.9 96 36C95.9 36.1 95.7 36.3 95.5 36.6C95.4 36.8 94.8 37.5 94.2 38.3C93.6 39 93.1 39.7 92.9 39.9C92.8 40.1 92.3 40.6 91.9 41.2C91.4 41.7 91.1 42.2 91.1 42.2C91.1 42.3 91 42.4 90.8 42.6C90.5 42.9 90.4 43 89.3 44.3C89 44.7 88.7 45.1 88.6 45.2C88.5 45.3 88.4 45.5 88.4 45.6C88.4 45.7 88.4 45.8 88.3 45.8C88.1 45.9 86.6 47.7 86.3 48.3C86.2 48.4 86.1 48.5 86 48.5C85.9 48.5 85.7 48.8 85.5 49C85.4 49.3 85 49.8 84.7 50.1C83.6 51.3 83.3 51.7 83.2 52C83.1 52.1 82.8 52.5 82.6 52.7C82.4 53 82.1 53.3 82 53.5C81.9 53.7 81.8 53.8 81.8 53.8C81.7 53.8 81.4 54.1 81.1 54.5C80.8 54.9 80.4 55.4 80.3 55.6C80.1 55.8 79.8 56.2 79.6 56.4C79.5 56.5 79 57.1 78.6 57.6C78.2 58.1 77.5 59 77 59.5C76.6 60 76 60.8 75.7 61.1C75.3 61.5 75 62 74.8 62.2C74.7 62.4 74.3 62.9 73.9 63.3C73.6 63.7 73.1 64.2 72.9 64.5C72.7 64.8 72.4 65.2 72.2 65.3C72.1 65.5 71.8 65.8 71.7 65.9C71.6 66.1 71.3 66.5 71.1 66.8C70.4 67.5 70.2 67.8 69.9 68.2C69.7 68.5 69.3 68.9 69 69.3C68.7 69.6 68.1 70.4 67.6 71C67.1 71.5 66.5 72.2 66.3 72.6C66 72.9 65.5 73.4 65.2 73.9C64.8 74.3 64.5 74.7 64.5 74.7C63.9 75.3 64 75.1 62.5 77C62.1 77.5 61.6 78.2 61.3 78.5C61.1 78.8 60.4 79.6 59.8 80.3C59.3 80.9 58.7 81.6 58.6 81.7C58.5 81.8 58.4 81.9 58.4 81.9C58.4 82 58 82.4 57.6 82.9C57.1 83.4 56.8 83.8 56.8 83.9C56.8 83.9 56.2 84.5 55.6 85.2C55 85.9 54.4 86.6 54.3 86.8C54.2 86.9 53.9 87.2 53.7 87.4C53.4 87.8 52.6 88.6 51.6 89.8C51.3 90.2 50.9 90.7 50.7 90.9C50.1 91.5 48.8 93.1 48.8 93.2C48.8 93.2 48.7 93.3 48.6 93.4C48.5 93.4 47.9 94.1 47.2 94.9C45.5 96.8 44.8 97.6 44.1 98.3C43.8 98.6 43.6 98.9 43.6 99C43.6 99.1 42.7 100 42.6 100C42.5 100 42.3 99.9 42.2 99.7Z"/>
  </g>
</svg>
